<svg width="830" height="1125" viewBox="0 0 830 1125" fill="none" xmlns="http://www.w3.org/2000/svg">
<path d="M830 415C830 620.341 680.865 790.85 485 824.121C462.244 827.987 438.857 830 415 830C394.103 830 373.567 828.456 353.5 825.474C153.466 795.759 0 623.301 0 415C0 185.802 185.802 0 415 0C644.198 0 830 185.802 830 415Z" fill="#22160C"/>
<path d="M415 830C394.103 830 373.567 828.456 353.5 825.474C362.667 828.316 388 844.5 398 859.5C411.6 879.9 415 917 415 933C416 914.333 420.3 873.5 429.5 859.5C438.7 845.5 470.333 830.081 485 824.121C462.244 827.987 438.857 830 415 830Z" fill="#22160C"/>
<path d="M455 1085C455 1107.09 437.091 1125 415 1125C392.909 1125 375 1107.09 375 1085C375 1062.91 392.909 1045 415 1045C437.091 1045 455 1062.91 455 1085Z" fill="#22160C"/>
<path d="M212.659 627.391V582.279H228.687C235.836 582.279 241.505 584.268 245.688 588.241C249.871 592.213 251.965 597.717 251.965 604.739C251.965 611.807 249.871 617.348 245.688 621.366C241.501 625.384 235.836 627.391 228.687 627.391H212.659V627.391ZM223.699 617.928H228.243C232.111 617.928 235.132 616.794 237.295 614.522C239.462 612.25 240.545 608.991 240.545 604.744C240.545 600.538 239.452 597.32 237.263 595.089C235.078 592.858 232.069 591.747 228.238 591.747H223.694V617.928H223.699ZM339.098 610.797V582.279H350.139V610.797C350.139 613.11 350.843 614.897 352.251 616.159C353.659 617.421 355.565 618.052 357.96 618.052C360.356 618.052 362.262 617.421 363.67 616.159C365.078 614.897 365.782 613.11 365.782 610.797V582.279H376.823V610.797C376.823 615.926 375.099 620.104 371.648 623.323C368.201 626.541 363.657 628.15 358.02 628.15C352.342 628.15 347.766 626.541 344.296 623.323C340.826 620.104 339.089 615.93 339.089 610.797H339.098ZM466.233 627.391V582.279H494.499V591.742H477.273V599.944H491.029V609.407H477.273V617.924H495.381V627.387H466.233V627.391ZM592.608 627.391V591.742H578.917V582.279H617.34V591.742H603.649V627.391H592.608V627.391Z" fill="url(#paint0_linear_930_272)"/>
<path d="M196.06 550.014H151.67C147.661 550.014 144.077 549.52 140.918 548.532C137.709 547.531 134.943 546.014 132.625 543.988C130.079 541.84 128.168 539.216 126.893 536.121C125.631 533.053 125 529.542 125 525.593V465.175C125 461.308 125.558 457.829 126.669 454.738C127.793 451.607 129.485 448.9 131.734 446.624C133.992 444.338 136.68 442.619 139.803 441.481C142.879 440.356 146.354 439.794 150.226 439.794H197.724V458.51H155.67C151.606 458.51 148.612 459.374 146.687 461.102C144.808 462.78 143.876 465.39 143.876 468.928V485.628H197.724V504.344H143.876V520.719C143.876 524.308 144.827 526.955 146.729 528.665C148.681 530.415 151.716 531.298 155.83 531.298H197.719V550.018H196.055L196.06 550.014ZM687.569 490.725V490.547C687.569 488.051 686.865 486.218 685.461 485.052C683.966 483.809 681.603 483.187 678.38 483.187H663.216C659.408 483.187 656.61 483.923 654.814 485.39C653.122 486.776 652.272 488.929 652.272 491.841V505.318L687.564 490.73L687.569 490.725ZM703.962 501.167L652.276 522.219V523.503C652.276 525.442 652.532 527.074 653.044 528.39C653.52 529.62 654.229 530.598 655.161 531.321L655.179 531.334C655.787 531.819 656.665 532.194 657.813 532.459C659.074 532.752 660.638 532.893 662.503 532.893H705V550.009H659.957C656.066 550.009 652.67 549.616 649.767 548.83C646.768 548.02 644.295 546.782 642.338 545.127C639.878 543.074 638.032 540.473 636.802 537.323C635.6 534.237 634.996 530.644 634.996 526.548V488.568C634.996 481.253 637.003 475.717 641.021 471.968C644.999 468.252 650.868 466.391 658.622 466.391H682.819C690.129 466.391 695.656 468.352 699.409 472.279C703.135 476.179 705 481.93 705 489.532V500.746L703.958 501.171L703.962 501.167ZM631.91 468.686L600.979 543.367C599.946 545.858 598.524 547.746 596.714 549.026C594.876 550.325 592.686 550.974 590.149 550.974C587.608 550.974 585.418 550.325 583.58 549.026C581.77 547.746 580.348 545.863 579.319 543.376L547.268 466.391H565.134L589.994 526.397L615.165 466.391H632.861L631.91 468.691V468.686ZM540.978 550.014H525.691V466.391H542.646V550.014H540.978V550.014ZM544.727 446.738C544.727 448.183 544.452 449.55 543.908 450.83C543.373 452.1 542.573 453.262 541.513 454.322L541.508 454.327C540.448 455.387 539.282 456.183 538.02 456.722C536.74 457.266 535.373 457.541 533.924 457.541C532.475 457.541 531.122 457.275 529.86 456.75C528.603 456.224 527.455 455.442 526.418 454.405C525.38 453.376 524.598 452.224 524.072 450.962C523.547 449.7 523.281 448.343 523.281 446.898C523.281 445.412 523.533 444.023 524.04 442.729C524.543 441.435 525.297 440.256 526.303 439.19C527.318 438.112 528.466 437.298 529.746 436.754C531.026 436.21 532.42 435.936 533.924 435.936C535.419 435.936 536.813 436.196 538.093 436.722C539.378 437.243 540.544 438.029 541.586 439.067L541.59 439.072C542.628 440.109 543.414 441.275 543.936 442.564C544.457 443.849 544.722 445.239 544.722 446.734L544.727 446.738ZM515.016 483.182H478.759C477.232 483.182 475.911 483.306 474.809 483.548C473.79 483.772 472.967 484.092 472.345 484.513C471.445 485.121 470.782 485.816 470.357 486.593C469.936 487.365 469.726 488.257 469.726 489.276V492.504C469.726 494.762 470.425 496.422 471.829 497.487C473.369 498.657 475.801 499.242 479.12 499.242H497.073C499.898 499.242 502.495 499.727 504.858 500.696C507.226 501.665 509.334 503.119 511.181 505.053C513.009 506.968 514.39 509.13 515.309 511.535C516.228 513.931 516.689 516.532 516.689 519.339V529.433C516.689 532.139 516.228 534.713 515.3 537.149C514.381 539.572 513 541.849 511.167 543.97C510.079 545.241 508.941 546.302 507.766 547.156C506.572 548.03 505.324 548.683 504.031 549.113L503.976 549.131C502.975 549.429 501.754 549.648 500.314 549.79C498.897 549.931 497.297 550.005 495.518 550.005H452.77V532.889H491.806C493.502 532.889 494.888 532.665 495.957 532.217C496.899 531.824 497.594 531.248 498.047 530.493L498.074 530.457C498.426 529.903 498.709 529.035 498.911 527.865C499.13 526.575 499.244 524.962 499.244 523.019C499.244 520.724 498.673 519.042 497.535 517.985C496.36 516.897 494.494 516.353 491.934 516.353H474.947C471.893 516.353 469.086 515.937 466.54 515.105C463.957 514.264 461.653 513.003 459.623 511.32C457.355 509.51 455.646 507.38 454.494 504.934C453.346 502.488 452.77 499.754 452.77 496.737V485.998C452.77 482.757 453.428 479.799 454.745 477.13C456.052 474.474 458.009 472.133 460.606 470.108C462.233 468.837 464.281 467.891 466.741 467.273C469.113 466.679 471.888 466.382 475.056 466.382H516.685V483.178H515.021L515.016 483.182ZM443.988 528.153C443.988 535.362 442.009 540.816 438.045 544.514C434.118 548.18 428.331 550.014 420.687 550.014H397.13C389.486 550.014 383.699 548.18 379.772 544.514C375.813 540.816 373.829 535.362 373.829 528.153V466.391H390.785V524.148C390.785 525.602 391.004 526.905 391.443 528.047C391.868 529.158 392.508 530.137 393.354 530.973L393.358 530.978C393.953 531.568 394.885 532.029 396.152 532.354C397.56 532.715 399.361 532.898 401.555 532.898H416.417C423.494 532.898 427.032 530.036 427.032 524.308V466.391H443.988V528.153V528.153ZM361.828 550.014H346.537V438.025H363.493V550.014H361.828ZM336.763 550.014H305.512C297.594 550.014 291.601 548.084 287.541 544.222C283.454 540.34 281.411 534.608 281.411 527.028V488.248C281.411 481.089 283.139 475.662 286.595 471.973C290.074 468.252 295.207 466.391 301.987 466.391H338.111V483.187H307.642C305.74 483.187 304.149 483.356 302.874 483.69C301.722 483.992 300.844 484.426 300.245 484.984C299.665 485.528 299.212 486.337 298.897 487.411C298.545 488.613 298.366 490.136 298.366 491.969V523.796C298.366 526.905 299.153 529.195 300.73 530.658C302.339 532.153 304.858 532.902 308.287 532.902H338.431V550.018H336.767L336.763 550.014ZM277.1 550.014H259.728L241.044 523.211L222.36 550.014H201.985L231.499 506.996L203.758 466.391H223.969L240.898 490.949L258.132 466.391H278.316L250.914 506.996L280.259 550.014H277.109H277.1Z" fill="url(#paint1_linear_930_272)"/>
<mask id="mask0_930_272" style="mask-type:alpha" maskUnits="userSpaceOnUse" x="181" y="113" width="393" height="393">
<path fill-rule="evenodd" clip-rule="evenodd" d="M377.851 309.089L244.418 452.781L239.221 447.772L377.851 309.089Z" fill="#7E6519"/>
<path fill-rule="evenodd" clip-rule="evenodd" d="M377.852 309.089L240.087 448.606L235.859 444.33L377.852 309.089Z" fill="#7F651A"/>
<path fill-rule="evenodd" clip-rule="evenodd" d="M377.852 309.089L236.707 445.184L232.584 440.803L377.852 309.089Z" fill="#7F661A"/>
<path fill-rule="evenodd" clip-rule="evenodd" d="M377.852 309.089L233.407 441.679L229.396 437.197L377.852 309.089Z" fill="#80671A"/>
<path fill-rule="evenodd" clip-rule="evenodd" d="M377.851 309.089L230.198 438.093L226.295 433.517L377.851 309.089Z" fill="#81681B"/>
<path fill-rule="evenodd" clip-rule="evenodd" d="M377.853 309.089L227.077 434.431L223.286 429.761L377.853 309.089Z" fill="#82681B"/>
<path fill-rule="evenodd" clip-rule="evenodd" d="M377.852 309.089L224.046 430.692L220.374 425.931L377.852 309.089Z" fill="#82691B"/>
<path fill-rule="evenodd" clip-rule="evenodd" d="M377.852 309.089L221.105 426.883L217.551 422.028L377.852 309.089Z" fill="#836A1C"/>
<path fill-rule="evenodd" clip-rule="evenodd" d="M377.852 309.089L218.263 423.002L214.828 418.063L377.852 309.089Z" fill="#846A1C"/>
<path fill-rule="evenodd" clip-rule="evenodd" d="M377.852 309.089L215.515 419.05L212.205 414.027L377.852 309.089Z" fill="#856B1D"/>
<path fill-rule="evenodd" clip-rule="evenodd" d="M377.853 309.089L212.868 415.032L209.68 409.933L377.853 309.089Z" fill="#866C1D"/>
<path fill-rule="evenodd" clip-rule="evenodd" d="M377.85 309.089L210.313 410.951L207.254 405.775L377.85 309.089Z" fill="#866C1D"/>
<path fill-rule="evenodd" clip-rule="evenodd" d="M377.853 309.089L207.866 406.811L204.933 401.558L377.853 309.089Z" fill="#876D1E"/>
<path fill-rule="evenodd" clip-rule="evenodd" d="M377.851 309.089L205.518 402.608L202.713 397.286L377.851 309.089Z" fill="#886E1E"/>
<path fill-rule="evenodd" clip-rule="evenodd" d="M377.852 309.089L203.276 398.353L200.604 392.961L377.852 309.089Z" fill="#896F1E"/>
<path fill-rule="evenodd" clip-rule="evenodd" d="M377.852 309.089L201.138 394.039L198.599 388.587L377.852 309.089Z" fill="#896F1F"/>
<path fill-rule="evenodd" clip-rule="evenodd" d="M377.852 309.089L199.108 389.679L196.701 384.165L377.852 309.089Z" fill="#8A701F"/>
<path fill-rule="evenodd" clip-rule="evenodd" d="M377.851 309.089L197.182 385.267L194.915 379.697L377.851 309.089Z" fill="#8B711F"/>
<path fill-rule="evenodd" clip-rule="evenodd" d="M377.851 309.089L195.368 380.809L193.237 375.183L377.851 309.089Z" fill="#8C7120"/>
<path fill-rule="evenodd" clip-rule="evenodd" d="M377.853 309.089L193.664 376.31L191.672 370.635L377.853 309.089Z" fill="#8C7220"/>
<path fill-rule="evenodd" clip-rule="evenodd" d="M377.85 309.089L192.068 371.769L190.216 366.045L377.85 309.089Z" fill="#8D7320"/>
<path fill-rule="evenodd" clip-rule="evenodd" d="M377.853 309.089L190.588 367.193L188.875 361.424L377.853 309.089Z" fill="#8E7321"/>
<path fill-rule="evenodd" clip-rule="evenodd" d="M377.851 309.089L189.215 362.578L187.646 356.771L377.851 309.089Z" fill="#8F7421"/>
<path fill-rule="evenodd" clip-rule="evenodd" d="M377.852 309.089L187.961 357.933L186.535 352.091L377.852 309.089Z" fill="#907521"/>
<path fill-rule="evenodd" clip-rule="evenodd" d="M377.852 309.089L186.821 353.259L185.537 347.382L377.852 309.089Z" fill="#907622"/>
<path fill-rule="evenodd" clip-rule="evenodd" d="M377.852 309.089L185.792 348.557L184.655 342.649L377.852 309.089Z" fill="#917622"/>
<path fill-rule="evenodd" clip-rule="evenodd" d="M377.85 309.089L184.879 343.831L183.889 337.899L377.85 309.089Z" fill="#927723"/>
<path fill-rule="evenodd" clip-rule="evenodd" d="M377.852 309.089L184.089 339.084L183.242 333.131L377.852 309.089Z" fill="#937823"/>
<path fill-rule="evenodd" clip-rule="evenodd" d="M377.851 309.089L183.408 334.32L182.707 328.345L377.851 309.089Z" fill="#937823"/>
<path fill-rule="evenodd" clip-rule="evenodd" d="M377.852 309.089L182.851 329.542L182.297 323.553L377.852 309.089Z" fill="#947924"/>
<path fill-rule="evenodd" clip-rule="evenodd" d="M377.851 309.089L182.407 324.749L181.999 318.747L377.851 309.089Z" fill="#957A24"/>
<path fill-rule="evenodd" clip-rule="evenodd" d="M377.853 309.089L182.081 319.947L181.823 313.937L377.853 309.089Z" fill="#967B24"/>
<path fill-rule="evenodd" clip-rule="evenodd" d="M377.851 309.089L181.874 315.14L181.762 309.127L377.851 309.089Z" fill="#977B25"/>
<path fill-rule="evenodd" clip-rule="evenodd" d="M377.85 309.089L181.782 310.331L181.817 304.314L377.85 309.089Z" fill="#977C25"/>
<path fill-rule="evenodd" clip-rule="evenodd" d="M377.85 309.089L181.81 305.517L181.995 299.504L377.85 309.089Z" fill="#987D25"/>
<path fill-rule="evenodd" clip-rule="evenodd" d="M377.852 309.089L181.958 300.708L182.29 294.702L377.852 309.089Z" fill="#997D26"/>
<path fill-rule="evenodd" clip-rule="evenodd" d="M377.852 309.089L182.223 295.901L182.701 289.906L377.852 309.089Z" fill="#9A7E26"/>
<path fill-rule="evenodd" clip-rule="evenodd" d="M377.851 309.09L182.606 291.106L183.231 285.125L377.851 309.09Z" fill="#9A7F26"/>
<path fill-rule="evenodd" clip-rule="evenodd" d="M377.852 309.089L183.105 286.32L183.88 280.353L377.852 309.089Z" fill="#9B7F27"/>
<path fill-rule="evenodd" clip-rule="evenodd" d="M377.852 309.09L183.723 281.546L184.643 275.603L377.852 309.09Z" fill="#9C8027"/>
<path fill-rule="evenodd" clip-rule="evenodd" d="M377.852 309.089L184.458 276.792L185.522 270.87L377.852 309.089Z" fill="#9D8127"/>
<path fill-rule="evenodd" clip-rule="evenodd" d="M377.852 309.089L185.31 272.055L186.517 266.161L377.852 309.089Z" fill="#9E8228"/>
<path fill-rule="evenodd" clip-rule="evenodd" d="M377.851 309.089L186.275 267.34L187.628 261.48L377.851 309.089Z" fill="#9E8228"/>
<path fill-rule="evenodd" clip-rule="evenodd" d="M377.851 309.089L187.356 262.652L188.852 256.824L377.851 309.089Z" fill="#9F8328"/>
<path fill-rule="evenodd" clip-rule="evenodd" d="M377.853 309.09L188.558 257.989L190.194 252.203L377.853 309.09Z" fill="#A08429"/>
<path fill-rule="evenodd" clip-rule="evenodd" d="M377.852 309.089L189.865 253.36L191.648 247.612L377.852 309.089Z" fill="#A18429"/>
<path fill-rule="evenodd" clip-rule="evenodd" d="M377.852 309.089L191.292 248.763L193.213 243.064L377.852 309.089Z" fill="#A1852A"/>
<path fill-rule="evenodd" clip-rule="evenodd" d="M377.852 309.089L192.826 244.205L194.887 238.552L377.852 309.089Z" fill="#A2862A"/>
<path fill-rule="evenodd" clip-rule="evenodd" d="M377.853 309.089L194.477 239.681L196.674 234.083L377.853 309.089Z" fill="#A3862A"/>
<path fill-rule="evenodd" clip-rule="evenodd" d="M377.851 309.089L196.233 235.203L198.57 229.661L377.851 309.089Z" fill="#A4872B"/>
<path fill-rule="evenodd" clip-rule="evenodd" d="M377.851 309.089L198.102 230.766L200.571 225.283L377.851 309.089Z" fill="#A4882B"/>
<path fill-rule="evenodd" clip-rule="evenodd" d="M377.852 309.089L200.078 226.378L202.683 220.958L377.852 309.089Z" fill="#A5892B"/>
<path fill-rule="evenodd" clip-rule="evenodd" d="M377.853 309.089L202.164 222.043L204.899 216.686L377.853 309.089Z" fill="#A6892C"/>
<path fill-rule="evenodd" clip-rule="evenodd" d="M377.85 309.089L204.348 217.757L207.215 212.469L377.85 309.089Z" fill="#A78A2C"/>
<path fill-rule="evenodd" clip-rule="evenodd" d="M377.85 309.089L206.644 213.526L209.64 208.312L377.85 309.089Z" fill="#A88B2C"/>
<path fill-rule="evenodd" clip-rule="evenodd" d="M377.851 309.089L209.04 209.355L212.165 204.214L377.851 309.089Z" fill="#A88B2D"/>
<path fill-rule="evenodd" clip-rule="evenodd" d="M377.85 309.09L211.537 205.243L214.787 200.179L377.85 309.09Z" fill="#A98C2D"/>
<path fill-rule="evenodd" clip-rule="evenodd" d="M377.852 309.089L214.14 201.189L217.509 196.209L377.852 309.089Z" fill="#AA8D2D"/>
<path fill-rule="evenodd" clip-rule="evenodd" d="M377.851 309.089L216.836 197.206L220.327 192.31L377.851 309.089Z" fill="#AB8E2E"/>
<path fill-rule="evenodd" clip-rule="evenodd" d="M377.852 309.089L219.63 193.286L223.243 188.476L377.852 309.089Z" fill="#AB8E2E"/>
<path fill-rule="evenodd" clip-rule="evenodd" d="M377.851 309.09L222.518 189.44L226.25 184.721L377.851 309.09Z" fill="#AC8F2E"/>
<path fill-rule="evenodd" clip-rule="evenodd" d="M377.852 309.089L225.503 185.665L229.347 181.037L377.852 309.089Z" fill="#AD902F"/>
<path fill-rule="evenodd" clip-rule="evenodd" d="M377.85 309.088L228.575 181.961L232.533 177.43L377.85 309.088Z" fill="#AE902F"/>
<path fill-rule="evenodd" clip-rule="evenodd" d="M377.851 309.089L231.742 178.338L235.809 173.905L377.851 309.089Z" fill="#AF9130"/>
<path fill-rule="evenodd" clip-rule="evenodd" d="M377.85 309.09L234.992 174.791L239.167 170.459L377.85 309.09Z" fill="#AF9230"/>
<path fill-rule="evenodd" clip-rule="evenodd" d="M377.852 309.09L238.336 171.328L242.612 167.097L377.852 309.09Z" fill="#B09230"/>
<path fill-rule="evenodd" clip-rule="evenodd" d="M377.853 309.089L241.758 167.944L246.139 163.821L377.853 309.089Z" fill="#B19331"/>
<path fill-rule="evenodd" clip-rule="evenodd" d="M377.852 309.089L245.263 164.644L249.745 160.633L377.852 309.089Z" fill="#B29431"/>
<path fill-rule="evenodd" clip-rule="evenodd" d="M377.852 309.09L248.848 161.436L253.424 157.533L377.852 309.09Z" fill="#B29531"/>
<path fill-rule="evenodd" clip-rule="evenodd" d="M377.851 309.089L252.509 158.314L257.183 154.526L377.851 309.089Z" fill="#B39532"/>
<path fill-rule="evenodd" clip-rule="evenodd" d="M377.852 309.09L256.249 155.284L261.013 151.611L377.852 309.09Z" fill="#B49632"/>
<path fill-rule="evenodd" clip-rule="evenodd" d="M377.852 309.089L260.058 152.346L264.913 148.792L377.852 309.089Z" fill="#B59732"/>
<path fill-rule="evenodd" clip-rule="evenodd" d="M377.85 309.089L263.938 149.5L268.877 146.068L377.85 309.089Z" fill="#B69733"/>
<path fill-rule="evenodd" clip-rule="evenodd" d="M377.852 309.088L267.892 146.755L272.914 143.441L377.852 309.088Z" fill="#B69833"/>
<path fill-rule="evenodd" clip-rule="evenodd" d="M377.85 309.089L271.908 144.104L277.007 140.917L377.85 309.089Z" fill="#B79933"/>
<path fill-rule="evenodd" clip-rule="evenodd" d="M377.852 309.089L275.99 141.555L281.166 138.492L377.852 309.089Z" fill="#B89934"/>
<path fill-rule="evenodd" clip-rule="evenodd" d="M377.85 309.089L280.132 139.106L285.381 136.169L377.85 309.089Z" fill="#B99A34"/>
<path fill-rule="evenodd" clip-rule="evenodd" d="M377.852 309.09L284.333 136.76L289.655 133.956L377.852 309.09Z" fill="#B99B34"/>
<path fill-rule="evenodd" clip-rule="evenodd" d="M377.851 309.09L288.59 134.514L293.979 131.842L377.851 309.09Z" fill="#BA9C35"/>
<path fill-rule="evenodd" clip-rule="evenodd" d="M377.851 309.09L292.901 132.375L298.353 129.836L377.851 309.09Z" fill="#BB9C35"/>
<path fill-rule="evenodd" clip-rule="evenodd" d="M377.852 309.089L297.263 130.345L302.777 127.942L377.852 309.089Z" fill="#BC9D36"/>
<path fill-rule="evenodd" clip-rule="evenodd" d="M377.852 309.089L301.675 128.419L307.245 126.152L377.852 309.089Z" fill="#BC9E36"/>
<path fill-rule="evenodd" clip-rule="evenodd" d="M377.852 309.089L306.132 126.606L311.758 124.475L377.852 309.089Z" fill="#BD9E36"/>
<path fill-rule="evenodd" clip-rule="evenodd" d="M377.851 309.089L310.63 124.9L316.305 122.908L377.851 309.089Z" fill="#BE9F37"/>
<path fill-rule="evenodd" clip-rule="evenodd" d="M377.853 309.089L315.173 123.307L320.896 121.455L377.853 309.089Z" fill="#BFA037"/>
<path fill-rule="evenodd" clip-rule="evenodd" d="M377.852 309.089L319.748 121.824L325.517 120.112L377.852 309.089Z" fill="#C0A137"/>
<path fill-rule="evenodd" clip-rule="evenodd" d="M377.851 309.088L324.362 120.453L330.169 118.883L377.851 309.088Z" fill="#C0A138"/>
<path fill-rule="evenodd" clip-rule="evenodd" d="M377.852 309.089L329.008 119.198L334.854 117.771L377.852 309.089Z" fill="#C1A238"/>
<path fill-rule="evenodd" clip-rule="evenodd" d="M377.852 309.09L333.682 118.058L339.559 116.774L377.852 309.09Z" fill="#C2A338"/>
<path fill-rule="evenodd" clip-rule="evenodd" d="M377.852 309.089L338.384 117.032L344.292 115.891L377.852 309.089Z" fill="#C3A339"/>
<path fill-rule="evenodd" clip-rule="evenodd" d="M377.85 309.089L343.108 116.122L349.041 115.128L377.85 309.089Z" fill="#C3A439"/>
<path fill-rule="evenodd" clip-rule="evenodd" d="M377.85 309.089L347.855 115.327L353.809 114.479L377.85 309.089Z" fill="#C4A539"/>
<path fill-rule="evenodd" clip-rule="evenodd" d="M377.851 309.089L352.62 114.65L358.594 113.949L377.851 309.089Z" fill="#C5A53A"/>
<path fill-rule="evenodd" clip-rule="evenodd" d="M377.852 309.088L357.399 114.088L363.391 113.533L377.852 309.088Z" fill="#C6A63A"/>
<path fill-rule="evenodd" clip-rule="evenodd" d="M377.852 309.09L362.192 113.646L368.194 113.238L377.852 309.09Z" fill="#C7A73A"/>
<path fill-rule="evenodd" clip-rule="evenodd" d="M377.852 309.089L366.994 113.321L373.004 113.059L377.852 309.089Z" fill="#C7A83B"/>
<path fill-rule="evenodd" clip-rule="evenodd" d="M377.85 309.089L371.799 113.112L377.812 113L377.85 309.089Z" fill="#C8A83B"/>
<path fill-rule="evenodd" clip-rule="evenodd" d="M377.852 309.089L376.614 113.021L382.627 113.06L377.852 309.089Z" fill="#C9A93B"/>
<path fill-rule="evenodd" clip-rule="evenodd" d="M377.852 309.09L381.423 113.053L387.436 113.234L377.852 309.09Z" fill="#CAAA3C"/>
<path fill-rule="evenodd" clip-rule="evenodd" d="M377.852 309.089L386.233 113.199L392.239 113.527L377.852 309.089Z" fill="#CAAA3C"/>
<path fill-rule="evenodd" clip-rule="evenodd" d="M377.852 309.09L391.039 113.461L397.035 113.942L377.852 309.09Z" fill="#C9A93B"/>
<path fill-rule="evenodd" clip-rule="evenodd" d="M377.852 309.089L395.835 113.844L401.82 114.468L377.852 309.089Z" fill="#C8A83A"/>
<path fill-rule="evenodd" clip-rule="evenodd" d="M377.852 309.09L400.62 114.347L406.588 115.118L377.852 309.09Z" fill="#C7A73A"/>
<path fill-rule="evenodd" clip-rule="evenodd" d="M377.852 309.09L405.395 114.964L411.338 115.881L377.852 309.09Z" fill="#C6A639"/>
<path fill-rule="evenodd" clip-rule="evenodd" d="M377.852 309.089L410.149 115.696L416.071 116.76L377.852 309.089Z" fill="#C5A539"/>
<path fill-rule="evenodd" clip-rule="evenodd" d="M377.852 309.09L414.885 116.548L420.78 117.758L377.852 309.09Z" fill="#C4A538"/>
<path fill-rule="evenodd" clip-rule="evenodd" d="M377.852 309.09L419.601 117.514L425.46 118.867L377.852 309.09Z" fill="#C3A437"/>
<path fill-rule="evenodd" clip-rule="evenodd" d="M377.852 309.089L424.288 118.597L430.117 120.094L377.852 309.089Z" fill="#C2A337"/>
<path fill-rule="evenodd" clip-rule="evenodd" d="M377.852 309.089L428.952 119.794L434.738 121.433L377.852 309.089Z" fill="#C2A236"/>
<path fill-rule="evenodd" clip-rule="evenodd" d="M377.852 309.089L433.58 121.106L439.328 122.885L377.852 309.089Z" fill="#C1A136"/>
<path fill-rule="evenodd" clip-rule="evenodd" d="M377.852 309.088L438.177 122.528L443.876 124.45L377.852 309.088Z" fill="#C0A135"/>
<path fill-rule="evenodd" clip-rule="evenodd" d="M377.852 309.09L442.736 124.068L448.389 126.125L377.852 309.09Z" fill="#BFA034"/>
<path fill-rule="evenodd" clip-rule="evenodd" d="M377.852 309.089L447.259 125.713L452.857 127.914L377.852 309.089Z" fill="#BE9F34"/>
<path fill-rule="evenodd" clip-rule="evenodd" d="M377.852 309.088L451.738 127.47L457.283 129.807L377.852 309.088Z" fill="#BD9E33"/>
<path fill-rule="evenodd" clip-rule="evenodd" d="M377.852 309.088L456.174 129.34L461.657 131.809L377.852 309.088Z" fill="#BC9D33"/>
<path fill-rule="evenodd" clip-rule="evenodd" d="M377.852 309.089L460.562 131.318L465.982 133.92L377.852 309.089Z" fill="#BB9D32"/>
<path fill-rule="evenodd" clip-rule="evenodd" d="M377.852 309.089L464.897 133.4L470.255 136.138L377.852 309.089Z" fill="#BA9C31"/>
<path fill-rule="evenodd" clip-rule="evenodd" d="M377.852 309.089L469.184 135.59L474.471 138.457L377.852 309.089Z" fill="#B99B31"/>
<path fill-rule="evenodd" clip-rule="evenodd" d="M377.852 309.088L473.415 137.881L478.629 140.877L377.852 309.088Z" fill="#B99A30"/>
<path fill-rule="evenodd" clip-rule="evenodd" d="M377.852 309.089L477.586 140.278L482.727 143.403L377.852 309.089Z" fill="#B89930"/>
<path fill-rule="evenodd" clip-rule="evenodd" d="M377.852 309.088L481.698 142.778L486.762 146.025L377.852 309.088Z" fill="#B7982F"/>
<path fill-rule="evenodd" clip-rule="evenodd" d="M377.852 309.089L485.751 145.377L490.732 148.75L377.852 309.089Z" fill="#B6982E"/>
<path fill-rule="evenodd" clip-rule="evenodd" d="M377.852 309.089L489.734 148.073L494.631 151.568L377.852 309.089Z" fill="#B5972E"/>
<path fill-rule="evenodd" clip-rule="evenodd" d="M377.852 309.089L493.654 150.868L498.464 154.481L377.852 309.089Z" fill="#B4962D"/>
<path fill-rule="evenodd" clip-rule="evenodd" d="M377.852 309.088L497.501 153.758L502.22 157.486L377.852 309.088Z" fill="#B3952D"/>
<path fill-rule="evenodd" clip-rule="evenodd" d="M377.852 309.088L501.279 156.74L505.904 160.583L377.852 309.088Z" fill="#B2942C"/>
<path fill-rule="evenodd" clip-rule="evenodd" d="M377.852 309.088L504.979 159.816L509.51 163.772L377.852 309.088Z" fill="#B1942B"/>
<path fill-rule="evenodd" clip-rule="evenodd" d="M377.852 309.09L508.603 162.981L513.036 167.048L377.852 309.09Z" fill="#B1932B"/>
<path fill-rule="evenodd" clip-rule="evenodd" d="M377.852 309.089L512.15 166.235L516.482 170.407L377.852 309.089Z" fill="#B0922A"/>
<path fill-rule="evenodd" clip-rule="evenodd" d="M377.852 309.089L515.617 169.573L519.844 173.852L377.852 309.089Z" fill="#AF912A"/>
<path fill-rule="evenodd" clip-rule="evenodd" d="M377.852 309.089L518.997 172.994L523.12 177.378L377.852 309.089Z" fill="#AE9029"/>
<path fill-rule="evenodd" clip-rule="evenodd" d="M377.852 309.09L522.296 176.5L526.307 180.982L377.852 309.09Z" fill="#AD8F28"/>
<path fill-rule="evenodd" clip-rule="evenodd" d="M377.852 309.088L525.505 180.084L529.408 184.664L377.852 309.088Z" fill="#AC8F28"/>
<path fill-rule="evenodd" clip-rule="evenodd" d="M377.852 309.09L528.627 183.748L532.415 188.421L377.852 309.09Z" fill="#AB8E27"/>
<path fill-rule="evenodd" clip-rule="evenodd" d="M377.852 309.089L531.658 187.486L535.33 192.25L377.852 309.089Z" fill="#AA8D27"/>
<path fill-rule="evenodd" clip-rule="evenodd" d="M377.852 309.089L534.594 191.298L538.152 196.149L377.852 309.089Z" fill="#A98C26"/>
<path fill-rule="evenodd" clip-rule="evenodd" d="M377.852 309.088L537.441 195.179L540.873 200.118L377.852 309.088Z" fill="#A98B25"/>
<path fill-rule="evenodd" clip-rule="evenodd" d="M377.852 309.089L540.185 199.128L543.499 204.15L377.852 309.089Z" fill="#A88B25"/>
<path fill-rule="evenodd" clip-rule="evenodd" d="M377.852 309.089L542.836 203.147L546.024 208.249L377.852 309.089Z" fill="#A78A24"/>
<path fill-rule="evenodd" clip-rule="evenodd" d="M377.852 309.089L545.386 207.227L548.448 212.407L377.852 309.089Z" fill="#A68924"/>
<path fill-rule="evenodd" clip-rule="evenodd" d="M377.852 309.089L547.838 211.371L550.771 216.62L377.852 309.089Z" fill="#A58823"/>
<path fill-rule="evenodd" clip-rule="evenodd" d="M377.852 309.089L550.182 215.57L552.986 220.892L377.852 309.089Z" fill="#A48722"/>
<path fill-rule="evenodd" clip-rule="evenodd" d="M377.852 309.09L552.428 219.829L555.099 225.218L377.852 309.09Z" fill="#A38722"/>
<path fill-rule="evenodd" clip-rule="evenodd" d="M377.852 309.089L554.566 224.139L557.105 229.594L377.852 309.089Z" fill="#A28621"/>
<path fill-rule="evenodd" clip-rule="evenodd" d="M377.852 309.089L556.596 228.503L559.002 234.017L377.852 309.089Z" fill="#A18521"/>
<path fill-rule="evenodd" clip-rule="evenodd" d="M377.852 309.089L558.521 232.911L560.788 238.485L377.852 309.089Z" fill="#A18420"/>
<path fill-rule="evenodd" clip-rule="evenodd" d="M377.852 309.089L560.335 237.368L562.466 242.994L377.852 309.089Z" fill="#A0831F"/>
<path fill-rule="evenodd" clip-rule="evenodd" d="M377.852 309.09L562.04 241.869L564.032 247.547L377.852 309.09Z" fill="#9F821F"/>
<path fill-rule="evenodd" clip-rule="evenodd" d="M377.852 309.089L563.634 246.409L565.486 252.133L377.852 309.089Z" fill="#9E821E"/>
<path fill-rule="evenodd" clip-rule="evenodd" d="M377.852 309.089L565.116 250.989L566.829 256.754L377.852 309.089Z" fill="#9D811E"/>
<path fill-rule="evenodd" clip-rule="evenodd" d="M377.852 309.089L566.487 255.603L568.057 261.407L377.852 309.089Z" fill="#9C801D"/>
<path fill-rule="evenodd" clip-rule="evenodd" d="M377.852 309.089L567.743 260.246L569.169 266.091L377.852 309.089Z" fill="#9B7F1C"/>
<path fill-rule="evenodd" clip-rule="evenodd" d="M377.852 309.089L568.883 264.922L570.167 270.799L377.852 309.089Z" fill="#9A7E1C"/>
<path fill-rule="evenodd" clip-rule="evenodd" d="M377.852 309.089L569.909 269.624L571.049 275.529L377.852 309.089Z" fill="#997E1B"/>
<path fill-rule="evenodd" clip-rule="evenodd" d="M377.852 309.09L570.819 274.351L571.813 280.28L377.852 309.09Z" fill="#997D1A"/>
<path fill-rule="evenodd" clip-rule="evenodd" d="M377.852 309.089L571.614 279.094L572.462 285.051L377.852 309.089Z" fill="#987C1A"/>
<path fill-rule="evenodd" clip-rule="evenodd" d="M377.852 309.089L572.294 283.858L572.992 289.833L377.852 309.089Z" fill="#977B19"/>
<path fill-rule="evenodd" clip-rule="evenodd" d="M377.852 309.089L572.852 288.636L573.407 294.628L377.852 309.089Z" fill="#967A19"/>
<path fill-rule="evenodd" clip-rule="evenodd" d="M377.852 309.089L573.295 293.428L573.703 299.431L377.852 309.089Z" fill="#957918"/>
<path fill-rule="evenodd" clip-rule="evenodd" d="M377.852 309.09L573.623 298.232L573.881 304.241L377.852 309.09Z" fill="#947917"/>
<path fill-rule="evenodd" clip-rule="evenodd" d="M377.852 309.089L573.829 303.038L573.941 309.055L377.852 309.089Z" fill="#937817"/>
<path fill-rule="evenodd" clip-rule="evenodd" d="M377.852 309.089L573.92 307.851L573.885 313.867L377.852 309.089Z" fill="#927716"/>
<path fill-rule="evenodd" clip-rule="evenodd" d="M377.852 309.089L573.892 312.661L573.707 318.674L377.852 309.089Z" fill="#917616"/>
<path fill-rule="evenodd" clip-rule="evenodd" d="M377.852 309.089L573.742 317.474L573.414 323.48L377.852 309.089Z" fill="#917515"/>
<path fill-rule="evenodd" clip-rule="evenodd" d="M377.852 309.089L573.48 322.277L572.999 328.276L377.852 309.089Z" fill="#907514"/>
<path fill-rule="evenodd" clip-rule="evenodd" d="M377.852 309.089L573.097 327.076L572.472 333.057L377.852 309.089Z" fill="#8F7414"/>
<path fill-rule="evenodd" clip-rule="evenodd" d="M377.852 309.089L572.598 331.861L571.824 337.825L377.852 309.089Z" fill="#8F7414"/>
<path fill-rule="evenodd" clip-rule="evenodd" d="M377.852 309.089L571.977 336.632L571.06 342.579L377.852 309.089Z" fill="#8F7414"/>
<path fill-rule="evenodd" clip-rule="evenodd" d="M377.852 309.089L571.245 341.39L570.181 347.309L377.852 309.089Z" fill="#8F7414"/>
<path fill-rule="evenodd" clip-rule="evenodd" d="M377.852 309.089L570.394 346.126L569.183 352.017L377.852 309.089Z" fill="#8F7414"/>
<path fill-rule="evenodd" clip-rule="evenodd" d="M377.852 309.089L569.427 350.838L568.074 356.701L377.852 309.089Z" fill="#8F7414"/>
<path fill-rule="evenodd" clip-rule="evenodd" d="M377.852 309.089L568.343 355.53L566.846 361.354L377.852 309.089Z" fill="#907414"/>
<path fill-rule="evenodd" clip-rule="evenodd" d="M377.852 309.089L567.146 360.189L565.507 365.976L377.852 309.089Z" fill="#907414"/>
<path fill-rule="evenodd" clip-rule="evenodd" d="M377.852 309.089L565.835 364.818L564.056 370.566L377.852 309.089Z" fill="#907414"/>
<path fill-rule="evenodd" clip-rule="evenodd" d="M377.852 309.089L564.412 369.415L562.49 375.117L377.852 309.089Z" fill="#907415"/>
<path fill-rule="evenodd" clip-rule="evenodd" d="M377.852 309.089L562.874 373.977L560.816 379.627L377.852 309.089Z" fill="#907415"/>
<path fill-rule="evenodd" clip-rule="evenodd" d="M377.852 309.089L561.227 378.497L559.03 384.095L377.852 309.089Z" fill="#907415"/>
<path fill-rule="evenodd" clip-rule="evenodd" d="M377.852 309.089L559.47 382.975L557.133 388.521L377.852 309.089Z" fill="#907415"/>
<path fill-rule="evenodd" clip-rule="evenodd" d="M377.852 309.089L557.6 387.412L555.131 392.895L377.852 309.089Z" fill="#907415"/>
<path fill-rule="evenodd" clip-rule="evenodd" d="M377.852 309.089L555.626 391.799L553.021 397.223L377.852 309.089Z" fill="#907415"/>
<path fill-rule="evenodd" clip-rule="evenodd" d="M377.852 309.089L553.54 396.138L550.806 401.496L377.852 309.089Z" fill="#907515"/>
<path fill-rule="evenodd" clip-rule="evenodd" d="M377.852 309.089L551.35 400.421L548.486 405.712L377.852 309.089Z" fill="#907515"/>
<path fill-rule="evenodd" clip-rule="evenodd" d="M377.852 309.089L549.058 404.652L546.062 409.87L377.852 309.089Z" fill="#917515"/>
<path fill-rule="evenodd" clip-rule="evenodd" d="M377.852 309.089L546.662 408.827L543.537 413.968L377.852 309.089Z" fill="#917515"/>
<path fill-rule="evenodd" clip-rule="evenodd" d="M377.852 309.089L544.162 412.939L540.914 418L377.852 309.089Z" fill="#917515"/>
<path fill-rule="evenodd" clip-rule="evenodd" d="M377.852 309.089L541.563 416.989L538.194 421.969L377.852 309.089Z" fill="#917515"/>
<path fill-rule="evenodd" clip-rule="evenodd" d="M377.852 309.089L538.867 420.975L535.372 425.872L377.852 309.089Z" fill="#917515"/>
<path fill-rule="evenodd" clip-rule="evenodd" d="M377.852 309.089L536.073 424.892L532.46 429.702L377.852 309.089Z" fill="#917515"/>
<path fill-rule="evenodd" clip-rule="evenodd" d="M377.852 309.089L533.182 428.739L529.453 433.461L377.852 309.089Z" fill="#917515"/>
<path fill-rule="evenodd" clip-rule="evenodd" d="M377.852 309.089L530.2 432.516L526.356 437.145L377.852 309.089Z" fill="#917515"/>
<path fill-rule="evenodd" clip-rule="evenodd" d="M377.852 309.089L527.124 436.217L523.168 440.748L377.852 309.089Z" fill="#917515"/>
<path fill-rule="evenodd" clip-rule="evenodd" d="M377.852 309.089L523.96 439.844L519.893 444.277L377.852 309.089Z" fill="#917515"/>
<path fill-rule="evenodd" clip-rule="evenodd" d="M377.852 309.089L520.706 443.388L516.535 447.72L377.852 309.089Z" fill="#917516"/>
<path fill-rule="evenodd" clip-rule="evenodd" d="M377.852 309.089L517.368 446.855L513.089 451.082L377.852 309.089Z" fill="#927516"/>
<path fill-rule="evenodd" clip-rule="evenodd" d="M377.852 309.089L513.947 450.238L509.566 454.357L377.852 309.089Z" fill="#927516"/>
<path fill-rule="evenodd" clip-rule="evenodd" d="M377.852 309.089L510.441 453.534L505.959 457.548L377.852 309.089Z" fill="#927516"/>
<path fill-rule="evenodd" clip-rule="evenodd" d="M377.852 309.089L506.856 456.743L502.276 460.646L377.852 309.089Z" fill="#927516"/>
<path fill-rule="evenodd" clip-rule="evenodd" d="M377.852 309.089L503.194 459.864L498.52 463.656L377.852 309.089Z" fill="#927516"/>
<path fill-rule="evenodd" clip-rule="evenodd" d="M377.852 309.089L499.455 462.895L494.69 466.568L377.852 309.089Z" fill="#927516"/>
<path fill-rule="evenodd" clip-rule="evenodd" d="M377.852 309.089L495.642 465.836L490.791 469.39L377.852 309.089Z" fill="#927516"/>
<path fill-rule="evenodd" clip-rule="evenodd" d="M377.852 309.089L491.76 468.678L486.822 472.114L377.852 309.089Z" fill="#927516"/>
<path fill-rule="evenodd" clip-rule="evenodd" d="M377.852 309.089L487.812 471.426L482.79 474.736L377.852 309.089Z" fill="#927516"/>
<path fill-rule="evenodd" clip-rule="evenodd" d="M377.852 309.089L483.794 474.074L478.692 477.262L377.852 309.089Z" fill="#927516"/>
<path fill-rule="evenodd" clip-rule="evenodd" d="M377.852 309.089L479.714 476.627L474.534 479.686L377.852 309.089Z" fill="#927516"/>
<path fill-rule="evenodd" clip-rule="evenodd" d="M377.852 309.089L475.57 479.075L470.321 482.009L377.852 309.089Z" fill="#937516"/>
<path fill-rule="evenodd" clip-rule="evenodd" d="M377.852 309.089L471.371 481.423L466.048 484.227L377.852 309.089Z" fill="#937516"/>
<path fill-rule="evenodd" clip-rule="evenodd" d="M377.852 309.089L467.112 483.665L461.723 486.337L377.852 309.089Z" fill="#937516"/>
<path fill-rule="evenodd" clip-rule="evenodd" d="M377.852 309.089L462.801 485.803L457.35 488.342L377.852 309.089Z" fill="#937516"/>
<path fill-rule="evenodd" clip-rule="evenodd" d="M377.852 309.089L458.438 487.833L452.927 490.24L377.852 309.089Z" fill="#937516"/>
<path fill-rule="evenodd" clip-rule="evenodd" d="M377.852 309.089L454.029 489.759L448.456 492.026L377.852 309.089Z" fill="#937516"/>
<path fill-rule="evenodd" clip-rule="evenodd" d="M377.852 309.089L449.572 491.572L443.946 493.703L377.852 309.089Z" fill="#937617"/>
<path fill-rule="evenodd" clip-rule="evenodd" d="M377.852 309.089L445.072 493.278L439.394 495.273L377.852 309.089Z" fill="#937617"/>
<path fill-rule="evenodd" clip-rule="evenodd" d="M377.852 309.089L440.531 494.872L434.808 496.727L377.852 309.089Z" fill="#937617"/>
<path fill-rule="evenodd" clip-rule="evenodd" d="M377.852 309.089L435.952 496.354L430.186 498.066L377.852 309.089Z" fill="#937617"/>
<path fill-rule="evenodd" clip-rule="evenodd" d="M377.852 309.089L431.341 497.725L425.534 499.294L377.852 309.089Z" fill="#937617"/>
<path fill-rule="evenodd" clip-rule="evenodd" d="M377.852 309.089L426.695 498.98L420.849 500.407L377.852 309.089Z" fill="#947617"/>
<path fill-rule="evenodd" clip-rule="evenodd" d="M377.852 309.089L422.018 500.121L416.141 501.404L377.852 309.089Z" fill="#947617"/>
<path fill-rule="evenodd" clip-rule="evenodd" d="M377.852 309.089L417.316 501.15L411.411 502.287L377.852 309.089Z" fill="#947617"/>
<path fill-rule="evenodd" clip-rule="evenodd" d="M377.852 309.089L412.594 502.06L406.661 503.051L377.852 309.089Z" fill="#947617"/>
<path fill-rule="evenodd" clip-rule="evenodd" d="M377.852 309.089L407.847 502.852L401.89 503.699L377.852 309.089Z" fill="#947617"/>
<path fill-rule="evenodd" clip-rule="evenodd" d="M377.852 309.089L403.082 503.532L397.108 504.233L377.852 309.089Z" fill="#947617"/>
<path fill-rule="evenodd" clip-rule="evenodd" d="M377.852 309.089L398.304 504.09L392.312 504.645L377.852 309.089Z" fill="#947617"/>
<path fill-rule="evenodd" clip-rule="evenodd" d="M377.852 309.089L393.512 504.536L387.509 504.941L377.852 309.089Z" fill="#947617"/>
<path fill-rule="evenodd" clip-rule="evenodd" d="M377.852 309.089L388.709 504.861L382.7 505.119L377.852 309.089Z" fill="#947617"/>
<path fill-rule="evenodd" clip-rule="evenodd" d="M377.852 309.089L383.903 505.067L377.886 505.178L377.852 309.089Z" fill="#947617"/>
<path fill-rule="evenodd" clip-rule="evenodd" d="M377.851 309.089L379.09 505.157L373.077 505.122L377.851 309.089Z" fill="#947617"/>
<path fill-rule="evenodd" clip-rule="evenodd" d="M377.852 309.089L374.28 505.129L368.267 504.945L377.852 309.089Z" fill="#947617"/>
<path fill-rule="evenodd" clip-rule="evenodd" d="M377.852 309.089L369.471 504.983L363.461 504.652L377.852 309.089Z" fill="#957617"/>
<path fill-rule="evenodd" clip-rule="evenodd" d="M377.852 309.089L364.665 504.718L358.669 504.24L377.852 309.089Z" fill="#957618"/>
<path fill-rule="evenodd" clip-rule="evenodd" d="M377.851 309.089L359.867 504.334L353.882 503.71L377.851 309.089Z" fill="#957618"/>
<path fill-rule="evenodd" clip-rule="evenodd" d="M377.851 309.089L355.079 503.835L349.115 503.065L377.851 309.089Z" fill="#957618"/>
<path fill-rule="evenodd" clip-rule="evenodd" d="M377.85 309.089L350.307 503.218L344.36 502.301L377.85 309.089Z" fill="#957618"/>
<path fill-rule="evenodd" clip-rule="evenodd" d="M377.85 309.089L345.55 502.482L339.631 501.418L377.85 309.089Z" fill="#957618"/>
<path fill-rule="evenodd" clip-rule="evenodd" d="M377.852 309.089L340.815 501.631L334.924 500.424L377.852 309.089Z" fill="#957618"/>
<path fill-rule="evenodd" clip-rule="evenodd" d="M377.852 309.089L336.103 500.665L330.24 499.312L377.852 309.089Z" fill="#957618"/>
<path fill-rule="evenodd" clip-rule="evenodd" d="M377.852 309.089L331.415 499.584L325.586 498.087L377.852 309.089Z" fill="#957618"/>
<path fill-rule="evenodd" clip-rule="evenodd" d="M377.851 309.089L326.751 498.387L320.965 496.748L377.851 309.089Z" fill="#957618"/>
<path fill-rule="evenodd" clip-rule="evenodd" d="M377.851 309.089L322.122 497.076L316.375 495.294L377.851 309.089Z" fill="#957618"/>
<path fill-rule="evenodd" clip-rule="evenodd" d="M377.852 309.089L317.526 495.649L311.824 493.731L377.852 309.089Z" fill="#967618"/>
<path fill-rule="evenodd" clip-rule="evenodd" d="M377.852 309.089L312.964 494.115L307.314 492.053L377.852 309.089Z" fill="#967618"/>
<path fill-rule="evenodd" clip-rule="evenodd" d="M377.852 309.089L308.445 492.465L302.847 490.268L377.852 309.089Z" fill="#967718"/>
<path fill-rule="evenodd" clip-rule="evenodd" d="M377.851 309.089L303.965 490.707L298.419 488.37L377.851 309.089Z" fill="#967718"/>
<path fill-rule="evenodd" clip-rule="evenodd" d="M377.851 309.089L299.528 488.838L294.045 486.368L377.851 309.089Z" fill="#967718"/>
<path fill-rule="evenodd" clip-rule="evenodd" d="M377.852 309.089L295.142 486.864L289.722 484.258L377.852 309.089Z" fill="#967718"/>
<path fill-rule="evenodd" clip-rule="evenodd" d="M377.851 309.089L290.806 484.778L285.448 482.043L377.851 309.089Z" fill="#967718"/>
<path fill-rule="evenodd" clip-rule="evenodd" d="M377.85 309.089L286.518 482.591L281.23 479.724L377.85 309.089Z" fill="#967718"/>
<path fill-rule="evenodd" clip-rule="evenodd" d="M377.852 309.089L282.289 480.296L277.071 477.3L377.852 309.089Z" fill="#967719"/>
<path fill-rule="evenodd" clip-rule="evenodd" d="M377.852 309.089L278.118 477.9L272.973 474.778L377.852 309.089Z" fill="#967719"/>
<path fill-rule="evenodd" clip-rule="evenodd" d="M377.851 309.089L274.001 475.403L268.94 472.152L377.851 309.089Z" fill="#967719"/>
<path fill-rule="evenodd" clip-rule="evenodd" d="M377.851 309.089L269.952 472.804L264.971 469.431L377.851 309.089Z" fill="#977719"/>
<path fill-rule="evenodd" clip-rule="evenodd" d="M377.851 309.089L265.965 470.105L261.068 466.613L377.851 309.089Z" fill="#977719"/>
<path fill-rule="evenodd" clip-rule="evenodd" d="M377.851 309.089L262.048 467.311L257.238 463.697L377.851 309.089Z" fill="#977719"/>
<path fill-rule="evenodd" clip-rule="evenodd" d="M377.851 309.089L258.201 464.423L253.482 460.691L377.851 309.089Z" fill="#977719"/>
<path fill-rule="evenodd" clip-rule="evenodd" d="M377.852 309.089L254.425 461.437L249.8 457.594L377.852 309.089Z" fill="#977719"/>
<path fill-rule="evenodd" clip-rule="evenodd" d="M377.85 309.089L250.723 458.365L246.192 454.406L377.85 309.089Z" fill="#977719"/>
<path fill-rule="evenodd" clip-rule="evenodd" d="M377.851 309.089L247.099 455.198L243.552 451.947L377.851 309.089Z" fill="#7D6419"/>
</mask>
<g mask="url(#mask0_930_272)">
<path d="M284.776 156.616V412.91H471.435C492.509 409.895 509.095 403.507 522.615 388.788C536.136 374.069 540.679 355.621 540.679 337.53V228.982C540.679 210.89 534.96 194.868 522.615 180.738C510.27 166.608 495.52 159.632 477.456 156.616H284.776Z" fill="#C4C4C4"/>
<path d="M284.776 156.616V412.91H471.435C492.509 409.895 509.095 403.507 522.615 388.788C536.136 374.069 540.679 355.621 540.679 337.53V228.982C540.679 210.89 534.96 194.868 522.615 180.738C510.27 166.608 495.52 159.632 477.456 156.616H284.776Z" fill="url(#paint2_angular_930_272)"/>
</g>
<defs>
<linearGradient id="paint0_linear_930_272" x1="324.702" y1="635.154" x2="533.471" y2="580.794" gradientUnits="userSpaceOnUse">
<stop stop-color="#5F4B10"/>
<stop offset="0.211765" stop-color="#CAAA3C"/>
<stop offset="0.388235" stop-color="#8F7414"/>
<stop offset="0.6" stop-color="#F0CF5B"/>
<stop offset="1" stop-color="#977719"/>
</linearGradient>
<linearGradient id="paint1_linear_930_272" x1="363.497" y1="468.22" x2="355.021" y2="561.493" gradientUnits="userSpaceOnUse">
<stop stop-color="white"/>
<stop offset="1" stop-color="#EFEFEF"/>
</linearGradient>
<radialGradient id="paint2_angular_930_272" cx="0" cy="0" r="1" gradientUnits="userSpaceOnUse" gradientTransform="translate(390.148 307.377) rotate(134.956) scale(98.0011 98.001)">
<stop stop-color="#7F651A"/>
<stop offset="0.371804" stop-color="#CAAA3C"/>
<stop offset="0.620858" stop-color="#947917"/>
<stop offset="1" stop-color="#977719"/>
</radialGradient>
</defs>
</svg>
