<svg width="830" height="1125" viewBox="0 0 830 1125" fill="none" xmlns="http://www.w3.org/2000/svg">
<path d="M830 415C830 620.341 680.865 790.85 485 824.121C462.244 827.987 438.857 830 415 830C394.103 830 373.567 828.456 353.5 825.474C153.466 795.759 0 623.301 0 415C0 185.802 185.802 0 415 0C644.198 0 830 185.802 830 415Z" fill="#004D40"/>
<path d="M415 830C394.103 830 373.567 828.456 353.5 825.474C362.667 828.316 388 844.5 398 859.5C411.6 879.9 415 917 415 933C416 914.333 420.3 873.5 429.5 859.5C438.7 845.5 470.333 830.081 485 824.121C462.244 827.987 438.857 830 415 830Z" fill="#004D40"/>
<path d="M455 1085C455 1107.09 437.091 1125 415 1125C392.909 1125 375 1107.09 375 1085C375 1062.91 392.909 1045 415 1045C437.091 1045 455 1062.91 455 1085Z" fill="#004D40"/>
<path d="M191.746 513.905H146.545C142.521 513.905 138.932 513.4 135.777 512.388C132.587 511.366 129.845 509.824 127.553 507.764L127.554 507.763C125.031 505.584 123.14 502.921 121.88 499.775C120.627 496.649 120 493.061 120 489.013V425.884C120 421.913 120.553 418.348 121.659 415.19C122.775 412.008 124.45 409.255 126.68 406.937C128.915 404.614 131.577 402.872 134.67 401.713C137.73 400.565 141.201 399.989 145.077 399.989H192.831V418.288H150.622C146.329 418.288 143.145 419.246 141.069 421.16C139.024 423.042 138.003 425.926 138.003 429.802V447.88H192.832V466.185H138.003V483.925C138.003 487.858 139.038 490.781 141.108 492.691C143.212 494.631 146.438 495.603 150.787 495.603H192.831V513.907H191.746V513.905ZM708.685 462.917L655.674 485.072V486.837C655.674 488.938 655.948 490.715 656.497 492.171C657.025 493.567 657.809 494.678 658.851 495.5L658.865 495.51C659.556 496.075 660.53 496.507 661.789 496.805C663.12 497.119 664.758 497.277 666.698 497.277H709.362V513.905H664.108C660.199 513.905 656.794 513.5 653.891 512.694C650.927 511.87 648.483 510.623 646.559 508.953L646.56 508.951C644.13 506.875 642.309 504.24 641.098 501.049C639.902 497.901 639.304 494.223 639.304 490.017V450.335C639.304 442.869 641.283 437.239 645.24 433.445C649.175 429.673 655.011 427.787 662.748 427.787H687.388C694.657 427.787 700.141 429.773 703.836 433.745C707.518 437.7 709.362 443.565 709.362 451.338V462.633L708.685 462.918V462.917ZM692.83 453.005V452.398C692.83 449.598 692.04 447.524 690.462 446.177C688.825 444.779 686.291 444.079 682.866 444.079H667.423C663.402 444.079 660.422 444.894 658.484 446.523C656.61 448.096 655.672 450.504 655.672 453.744V468.765L692.83 453.004V453.005ZM634.982 429.322L603.487 507.353C602.483 509.843 601.106 511.722 599.358 512.989C597.592 514.267 595.48 514.907 593.021 514.907C590.563 514.907 588.451 514.267 586.684 512.989C584.935 511.72 583.559 509.845 582.554 507.358L550.273 427.786H567.143L592.862 491.481L618.898 427.786H635.601L634.98 429.322H634.982ZM546.164 406.628C546.164 408.06 545.903 409.405 545.381 410.665C544.866 411.913 544.094 413.064 543.067 414.116C542.043 415.165 540.923 415.955 539.708 416.484C538.48 417.019 537.171 417.286 535.779 417.286C534.383 417.286 533.081 417.027 531.871 416.509C530.666 415.992 529.564 415.222 528.566 414.198L528.561 414.193C527.564 413.169 526.814 412.039 526.311 410.803C525.807 409.562 525.554 408.226 525.554 406.797C525.554 405.325 525.796 403.949 526.282 402.672C526.769 401.39 527.494 400.222 528.459 399.17C529.432 398.109 530.534 397.309 531.761 396.774C532.988 396.239 534.328 395.971 535.779 395.971C537.224 395.971 538.563 396.229 539.794 396.745C541.028 397.26 542.146 398.032 543.148 399.057L543.151 399.061C544.153 400.091 544.906 401.241 545.41 402.508C545.912 403.772 546.164 405.147 546.164 406.628ZM542.957 513.905H527.999V427.787H544.044V513.905H542.958H542.957ZM516.525 444.079H479.606C478.002 444.079 476.616 444.212 475.447 444.475C474.334 444.726 473.428 445.094 472.731 445.573L472.731 445.575C471.737 446.266 470.996 447.064 470.514 447.972C470.036 448.871 469.796 449.904 469.796 451.069V454.446C469.796 457.007 470.591 458.908 472.178 460.146C473.857 461.454 476.455 462.11 479.967 462.11H498.247C501.048 462.11 503.613 462.6 505.94 463.579C508.271 464.56 510.348 466.029 512.167 467.984C513.978 469.929 515.338 472.119 516.248 474.551C517.157 476.976 517.61 479.62 517.61 482.483V493.033C517.61 495.788 517.153 498.401 516.237 500.875C515.323 503.34 513.956 505.654 512.137 507.819C511.049 509.117 509.929 510.196 508.777 511.053C507.609 511.926 506.397 512.576 505.142 513.005L505.108 513.017C504.125 513.317 502.919 513.54 501.493 513.685C500.082 513.83 498.475 513.903 496.672 513.903H453.755V497.273H492.896C494.704 497.273 496.191 497.024 497.358 496.524C498.437 496.06 499.244 495.376 499.773 494.469L499.79 494.442C500.197 493.789 500.51 492.809 500.73 491.499C500.963 490.116 501.079 488.395 501.079 486.333C501.079 483.752 500.432 481.846 499.142 480.616C497.83 479.365 495.792 478.738 493.027 478.738H475.731C472.682 478.738 469.89 478.315 467.356 477.469C464.804 476.616 462.523 475.335 460.513 473.626C458.272 471.792 456.585 469.64 455.454 467.17C454.323 464.7 453.756 461.934 453.756 458.872V447.649C453.756 444.356 454.405 441.359 455.702 438.661C456.994 435.972 458.926 433.6 461.498 431.541C463.087 430.269 465.094 429.321 467.518 428.696C469.887 428.088 472.659 427.783 475.838 427.783H517.613V444.078H516.527L516.525 444.079ZM443.59 491.691C443.59 499.045 441.637 504.591 437.734 508.329C433.854 512.048 428.1 513.905 420.473 513.905H396.485C388.859 513.905 383.106 512.048 379.226 508.329C375.323 504.591 373.371 499.045 373.371 491.691V427.783H389.414V487.505C389.414 489.101 389.651 490.534 390.123 491.801C390.59 493.048 391.286 494.143 392.215 495.084L392.219 495.088C392.903 495.786 393.944 496.318 395.342 496.687C396.832 497.079 398.716 497.277 400.993 497.277H416.13C420.037 497.277 422.93 496.47 424.811 494.857C426.635 493.294 427.547 490.899 427.547 487.672V427.783H443.59V491.691ZM360.541 513.905H345.582V398.145H361.627V513.905H360.541H360.541ZM335.021 513.905H303.199C295.296 513.905 289.335 511.946 285.318 508.029C281.284 504.098 279.268 498.261 279.268 490.52V449.998C279.268 442.677 280.971 437.149 284.377 433.416C287.804 429.662 292.881 427.785 299.609 427.785H335.778V444.079H305.366C303.378 444.079 301.707 444.262 300.356 444.629C299.086 444.972 298.105 445.473 297.42 446.128C296.745 446.773 296.232 447.713 295.878 448.947C295.5 450.266 295.31 451.913 295.31 453.884V487.137C295.31 490.567 296.178 493.11 297.912 494.762C299.667 496.437 302.371 497.273 306.023 497.273H336.107V513.905H335.021V513.905ZM274.268 513.905H256.896L237.55 485.431L218.209 513.905H198.94L228.57 469.585L200.74 427.785H219.843L237.395 453.912L255.263 427.785H274.352L246.859 469.584L276.321 513.905H274.268Z" fill="white"/>
<path d="M209.44 581.619C209.44 584.407 209.856 586.951 210.688 589.25C211.517 591.544 212.765 593.616 214.433 595.467C216.091 597.308 217.945 598.686 219.992 599.597C222.042 600.51 224.308 600.965 226.793 600.965C228.587 600.965 230.242 600.727 231.758 600.251C232.818 599.919 233.818 599.468 234.759 598.902L228.746 593.126L236.08 584.775L241.977 590.828C242.586 589.66 243.067 588.436 243.421 587.159C243.906 585.414 244.147 583.568 244.147 581.619C244.147 578.92 243.732 576.457 242.9 574.227C242.07 572.007 240.828 570.009 239.173 568.235C237.516 566.458 235.661 565.129 233.607 564.245C231.549 563.358 229.278 562.916 226.793 562.916C224.311 562.916 222.042 563.36 219.984 564.245C217.925 565.131 216.068 566.462 214.414 568.235C212.759 570.009 211.517 572.007 210.688 574.227C209.854 576.457 209.44 578.922 209.44 581.619ZM592.784 603.165L599.06 594.241L600.008 595.101C600.884 595.897 601.844 596.638 602.891 597.329C603.931 598.015 605.052 598.642 606.253 599.212C607.432 599.773 608.601 600.194 609.758 600.473C610.901 600.75 612.038 600.888 613.166 600.888C614.327 600.888 615.353 600.753 616.243 600.482C617.099 600.222 617.837 599.835 618.457 599.323C619.062 598.825 619.51 598.263 619.803 597.636C620.095 597.011 620.24 596.298 620.24 595.494C620.24 594.688 620.061 593.939 619.702 593.246C619.326 592.52 618.754 591.846 617.99 591.224H617.986C617.132 590.527 616.189 589.878 615.158 589.276C614.11 588.663 612.97 588.097 611.742 587.577C610.416 587.014 609.12 586.44 607.86 585.857C606.619 585.283 605.321 584.656 603.965 583.973C602.583 583.277 601.315 582.446 600.162 581.477C599.007 580.505 597.952 579.387 596.997 578.119C596.019 576.821 595.285 575.396 594.795 573.845C594.307 572.302 594.063 570.647 594.063 568.88C594.063 566.223 594.551 563.807 595.527 561.633C596.5 559.461 597.959 557.545 599.902 555.885C601.822 554.247 603.993 553.019 606.415 552.203C608.82 551.392 611.464 550.987 614.349 550.987C617.774 550.987 620.924 551.526 623.797 552.602C626.679 553.681 629.27 555.303 631.571 557.465L632.236 558.088L626.612 568.727L625.527 567.728C624.784 567.043 623.967 566.42 623.077 565.859C622.168 565.288 621.185 564.779 620.126 564.332C619.073 563.887 618.028 563.552 616.997 563.331C615.983 563.112 614.971 563.003 613.96 563.003C612.766 563.003 611.704 563.136 610.779 563.401V563.404C609.882 563.661 609.103 564.044 608.437 564.552H608.434C607.801 565.035 607.332 565.592 607.026 566.221C606.72 566.848 606.569 567.572 606.569 568.395C606.569 569.171 606.744 569.887 607.098 570.547C607.469 571.241 608.038 571.89 608.805 572.492C609.659 573.164 610.601 573.787 611.631 574.363C612.667 574.944 613.806 575.482 615.048 575.983C616.322 576.495 617.619 577.045 618.936 577.634C620.21 578.204 621.511 578.814 622.835 579.467C624.211 580.145 625.481 580.966 626.641 581.936C627.804 582.907 628.862 584.022 629.811 585.285C630.788 586.582 631.523 588.025 632.014 589.608C632.501 591.18 632.745 592.873 632.745 594.685C632.745 597.277 632.3 599.66 631.409 601.835C630.517 604.011 629.181 605.969 627.402 607.71C625.625 609.447 623.516 610.75 621.074 611.619C618.664 612.476 615.95 612.905 612.931 612.905C611.076 612.905 609.24 612.727 607.421 612.373C605.608 612.02 603.826 611.492 602.074 610.792L602.076 610.79C600.315 610.087 598.671 609.227 597.145 608.209C595.613 607.19 594.199 606.014 592.903 604.684L592.217 603.977L592.787 603.167L592.784 603.165ZM546.382 610.748V586.961L526.806 551.957H541.025L550.125 569.543L552.559 575.051C552.809 574.459 553.059 573.883 553.305 573.324C553.858 572.074 554.439 570.822 555.049 569.572L555.057 569.548L564.078 551.957H578.298L558.803 586.96V611.927H546.382V610.748ZM482.485 610.748V551.957H494.985V600.563H519.261V611.927H482.485V610.748ZM430.852 610.748V586.961L411.275 551.957H425.495L434.596 569.543L437.029 575.051C437.28 574.459 437.528 573.883 437.774 573.324C438.327 572.074 438.908 570.822 439.517 569.572L439.526 569.548L448.548 551.957H462.766L443.273 586.96V611.927H430.852V610.748ZM366.647 578.978H374.67C375.91 578.978 377.004 578.798 377.947 578.438C378.868 578.087 379.664 577.559 380.339 576.857C381.011 576.154 381.516 575.326 381.854 574.371C382.203 573.391 382.377 572.263 382.377 570.987C382.377 569.191 382.061 567.728 381.426 566.602C380.82 565.525 379.899 564.725 378.663 564.204L378.631 564.19C378.021 563.911 377.252 563.699 376.319 563.552C375.35 563.399 374.22 563.323 372.931 563.323H366.646V578.977L366.647 578.978ZM354.147 610.747V551.957H373.8C376.213 551.957 378.333 552.09 380.162 552.356C382.038 552.628 383.6 553.043 384.851 553.594L384.85 553.597C386.425 554.264 387.835 555.127 389.082 556.189L389.083 556.186C390.334 557.249 391.413 558.51 392.321 559.965V559.971C393.23 561.429 393.911 563.036 394.362 564.788C394.811 566.529 395.035 568.408 395.035 570.423C395.035 572.28 394.811 574.06 394.362 575.764C393.912 577.469 393.239 579.095 392.339 580.64C391.432 582.195 390.36 583.525 389.12 584.628C388.211 585.439 387.214 586.124 386.13 586.687L386.263 586.901C386.574 587.417 386.92 588.037 387.299 588.76L399.787 611.927H385.686L374.614 590.427H366.648V611.927H354.148V610.748L354.147 610.747ZM280.129 590.056V551.957H292.63V589.975C292.63 591.76 292.882 593.328 293.39 594.678C293.884 595.997 294.628 597.13 295.624 598.077C296.628 599.037 297.808 599.755 299.159 600.236C300.537 600.724 302.116 600.968 303.897 600.968C305.676 600.968 307.256 600.724 308.635 600.236C309.987 599.755 311.165 599.037 312.171 598.077C313.163 597.13 313.908 595.996 314.403 594.677C314.909 593.328 315.162 591.759 315.162 589.975V551.957H327.665V590.056C327.665 593.425 327.119 596.486 326.028 599.238C324.931 602.007 323.286 604.451 321.094 606.572C318.911 608.683 316.382 610.268 313.508 611.326C310.653 612.375 307.476 612.901 303.978 612.901C300.449 612.901 297.251 612.376 294.383 611.33C291.492 610.274 288.945 608.688 286.746 606.572L286.748 606.57C284.541 604.45 282.886 602.008 281.784 599.245C280.683 596.486 280.133 593.422 280.133 590.056H280.129ZM196.621 581.617C196.621 577.306 197.336 573.33 198.763 569.689C200.191 566.045 202.333 562.753 205.183 559.811C208.036 556.871 211.271 554.664 214.887 553.188C218.496 551.718 222.465 550.981 226.793 550.981C231.153 550.981 235.138 551.712 238.748 553.174C242.37 554.641 245.602 556.839 248.444 559.771C251.28 562.695 253.409 565.985 254.832 569.64C256.253 573.289 256.963 577.282 256.963 581.617C256.963 585.093 256.427 588.42 255.354 591.596C254.394 594.44 253.006 597.147 251.192 599.719L257.597 605.629L250.167 614.083L243.834 607.585C241.51 609.258 239.012 610.537 236.338 611.421C233.359 612.409 230.176 612.901 226.794 612.901C222.455 612.901 218.484 612.148 214.876 610.643C211.265 609.135 208.03 606.874 205.175 603.86C202.325 600.85 200.188 597.487 198.76 593.768C197.335 590.058 196.622 586.006 196.622 581.616L196.621 581.617Z" fill="#7CB935"/>
<path d="M314.074 163V195.473L373.338 180.896L381.534 215.994L314.074 232.585V250.399L374.525 235.531L382.722 270.628L314.074 287.511V305.325L403.758 283.266L411.898 318.122L515.288 277.316V163H314.074Z" fill="white"/>
<path d="M515.288 277.317L411.84 318.144L314.076 342.056V369.47H515.288V277.317Z" fill="#7CB935"/>
</svg>
